<svg height='100px' width='100px'  fill="#02A9E6" xmlns="http://www.w3.org/2000/svg" xmlns:xlink="http://www.w3.org/1999/xlink" version="1.1" x="0px" y="0px" viewBox="0 0 64 64" style="enable-background:new 0 0 64 64;" xml:space="preserve"><title>3Dprinting-technologydisruption-3d-printing-prototype-model-print</title><path d="M9,62h46c1.7,0,3-1.3,3-3V5c0-1.7-1.3-3-3-3H9C7.3,2,6,3.3,6,5v54C6,60.7,7.3,62,9,62z M26.3,60l0.3-1.2  c0.1-0.4,0.5-0.8,1-0.8h8.9c0.5,0,0.9,0.3,1,0.8l0.3,1.2H26.3z M8,5c0-0.6,0.4-1,1-1h46c0.6,0,1,0.4,1,1v54c0,0.6-0.4,1-1,1H39.8  l-0.4-1.7C39,56.9,37.8,56,36.4,56h-8.9c-1.4,0-2.6,0.9-2.9,2.3L24.2,60H9c-0.6,0-1-0.4-1-1V5z"></path><path d="M15,50h34c1.7,0,3-1.3,3-3V11c0-1.7-1.3-3-3-3H15c-1.7,0-3,1.3-3,3v36C12,48.7,13.3,50,15,50z M28,20h1v2.6l-8,4.8v11  l-7,3.9V15h11v2C25,18.7,26.3,20,28,20z M39,17v-2h11v27.3l-7-3.9v-11l-8-4.8V20h1C37.7,20,39,18.7,39,17z M29.3,24.8l2.7,2.7  l2.7-2.7l5.4,3.2L32,32.8L23.9,28L29.3,24.8z M33,20v3.6l-1,1l-1-1V20H33z M23,29.8l8,4.8v8.7l-8-4.8V29.8z M33,34.6l8-4.8v8.7  l-8,4.8V34.6z M37,17c0,0.6-0.4,1-1,1h-8c-0.6,0-1-0.4-1-1v-3h10V17z M49,48H15c-0.6,0-1-0.4-1-1v-2.4l8-4.4l10,6l10-6l8,4.4V47  C50,47.6,49.6,48,49,48z M15,10h34c0.6,0,1,0.4,1,1v2H39v-1H25v1H14v-2C14,10.4,14.4,10,15,10z"></path><rect x="46" y="52" width="3" height="2"></rect><rect x="41" y="52" width="3" height="2"></rect><rect x="15" y="52" width="3" height="2"></rect></svg>