<svg height='100px' width='100px'  fill="#02A9E6" xmlns:dc="http://purl.org/dc/elements/1.1/" xmlns:cc="http://creativecommons.org/ns#" xmlns:rdf="http://www.w3.org/1999/02/22-rdf-syntax-ns#" xmlns:svg="http://www.w3.org/2000/svg" xmlns="http://www.w3.org/2000/svg" xmlns:sodipodi="http://sodipodi.sourceforge.net/DTD/sodipodi-0.dtd" xmlns:inkscape="http://www.inkscape.org/namespaces/inkscape" viewBox="0 0 32 32.000001" version="1.1" x="0px" y="0px"><g transform="translate(0,-1020.3622)"><g transform="translate(-169,-452)"><path style="text-indent:0;text-transform:none;direction:ltr;block-progression:tb;baseline-shift:baseline;color:#000000;enable-background:accumulate;" d="M 2.34375 2 A 0.50004998 0.50004998 0 0 0 2 2.5 L 2 29.5 A 0.50004998 0.50004998 0 0 0 2.5 30 L 29.5 30 A 0.50004998 0.50004998 0 0 0 30 29.5 L 30 8.96875 L 30 2.5 A 0.50004998 0.50004998 0 0 0 29.5 2 L 2.5 2 A 0.50004998 0.50004998 0 0 0 2.34375 2 z M 3 3 L 29 3 L 29 6 L 3 6 L 3 3 z M 4.5 4 C 4.22385 4 4 4.2239 4 4.5 C 4 4.7761 4.22385 5 4.5 5 C 4.77614 5 5 4.7761 5 4.5 C 5 4.2239 4.77614 4 4.5 4 z M 6.5 4 C 6.22385 4 6 4.2238 6 4.5 C 6 4.7761 6.22385 5 6.5 5 C 6.77614 5 7 4.7761 7 4.5 C 7 4.2238 6.77614 4 6.5 4 z M 8.5 4 C 8.22384 4 8 4.2238 8 4.5 C 8 4.7761 8.22384 5 8.5 5 C 8.77615 5 9 4.7761 9 4.5 C 9 4.2238 8.77615 4 8.5 4 z M 3 7 L 29 7 L 29 8.96875 L 29 29 L 3 29 L 3 7 z M 4.5 8 C 4.22385 8 4 8.2238 4 8.5 C 4 8.7761 4.22385 9 4.5 9 C 4.77614 9 5 8.7761 5 8.5 C 5 8.2238 4.77614 8 4.5 8 z M 7 8 L 7 9 L 12 9 L 12 8 L 7 8 z M 13 8 L 13 9 L 15 9 L 15 8 L 13 8 z M 16 8 L 16 9 L 26 9 L 26 8 L 16 8 z M 4.5 10 C 4.22385 10 4 10.2238 4 10.5 C 4 10.7761 4.22385 11 4.5 11 C 4.77614 11 5 10.7761 5 10.5 C 5 10.2238 4.77614 10 4.5 10 z M 7 10 L 7 11 L 8 11 L 8 10 L 7 10 z M 9 10 L 9 11 L 17 11 L 17 10 L 9 10 z M 18 10 L 18 11 L 19 11 L 19 10 L 18 10 z M 20 10 L 20 11 L 24 11 L 24 10 L 20 10 z M 4.5 12 C 4.22385 12 4 12.2238 4 12.5 C 4 12.7761 4.22385 13 4.5 13 C 4.77614 13 5 12.7761 5 12.5 C 5 12.2238 4.77614 12 4.5 12 z M 7 12 L 7 13 L 15 13 L 15 12 L 7 12 z M 4.5 14 C 4.22385 14 4 14.2238 4 14.5 C 4 14.7761 4.22385 15 4.5 15 C 4.77614 15 5 14.7761 5 14.5 C 5 14.2238 4.77614 14 4.5 14 z M 7 14 L 7 15 L 9 15 L 9 14 L 7 14 z M 10 14 L 10 15 L 17 15 L 17 14 L 10 14 z M 4.5 16 C 4.22385 16 4 16.2238 4 16.5 C 4 16.7761 4.22385 17 4.5 17 C 4.77614 17 5 16.7761 5 16.5 C 5 16.2238 4.77614 16 4.5 16 z M 11 16 L 11 17 L 15 17 L 15 16 L 11 16 z M 4.5 18 C 4.22385 18 4 18.2238 4 18.5 C 4 18.7761 4.22385 19 4.5 19 C 4.77614 19 5 18.7761 5 18.5 C 5 18.2238 4.77614 18 4.5 18 z M 11 18 L 11 19 L 17 19 L 17 18 L 11 18 z M 18 18 L 18 19 L 19 19 L 19 18 L 18 18 z M 4.5 20 C 4.22385 20 4 20.2238 4 20.5 C 4 20.7761 4.22385 21 4.5 21 C 4.77614 21 5 20.7761 5 20.5 C 5 20.2238 4.77614 20 4.5 20 z M 11 20 L 11 21 L 17 21 L 17 20 L 11 20 z M 18 20 L 18 21 L 19 21 L 19 20 L 18 20 z M 4.5 22 C 4.22385 22 4 22.2238 4 22.5 C 4 22.7761 4.22385 23 4.5 23 C 4.77614 23 5 22.7761 5 22.5 C 5 22.2238 4.77614 22 4.5 22 z M 11 22 L 11 23 L 13 23 L 13 22 L 11 22 z M 4.5 24 C 4.22385 24 4 24.2238 4 24.5 C 4 24.7761 4.22385 25 4.5 25 C 4.77614 25 5 24.7761 5 24.5 C 5 24.2238 4.77614 24 4.5 24 z M 7 24 L 7 25 L 15 25 L 15 24 L 7 24 z M 16 24 L 16 25 L 18 25 L 18 24 L 16 24 z M 4.5 26 C 4.22385 26 4 26.2238 4 26.5 C 4 26.7761 4.22385 27 4.5 27 C 4.77614 27 5 26.7761 5 26.5 C 5 26.2238 4.77614 26 4.5 26 z M 7 26 L 7 27 L 12 27 L 12 26 L 7 26 z M 13 26 L 13 27 L 21 27 L 21 26 L 13 26 z " transform="translate(169,1472.3622)" fill="#02A9E6" fill-opacity="1" stroke="none" marker="none" visibility="visible" display="inline" overflow="visible"></path></g></g></svg>