<svg height='100px' width='100px'  fill="#02A9E6" xmlns="http://www.w3.org/2000/svg" data-name="Слой 1" viewBox="0 0 128 128" x="0px" y="0px"><title>ic_arithmetic</title><path d="M21,39.92a20,20,0,1,0-20-20A20,20,0,0,0,21,39.92ZM21,4a16,16,0,1,1-16,16A16,16,0,0,1,21,4Z"></path><path d="M88.44,2a2,2,0,0,0-1.73-1A2,2,0,0,0,85,2l-19,33a2,2,0,0,0,1.73,3h38.1a2,2,0,0,0,1.74-1,2,2,0,0,0,0-2ZM71.12,34,86.71,7,102.3,34Z"></path><path d="M60,18H56V14a2,2,0,0,0-4,0v4H48a2,2,0,0,0,0,4h4v4a2,2,0,0,0,4,0V22h4a2,2,0,0,0,0-4Z"></path><path d="M114,18h12a2,2,0,0,0,0-4H114a2,2,0,0,0,0,4Z"></path><path d="M126,22H114a2,2,0,0,0,0,4h12a2,2,0,0,0,0-4Z"></path><path d="M22.81,46a2,2,0,0,0-3.47,0L.27,79A2,2,0,0,0,2,82H40.15a2,2,0,0,0,1.74-1,2,2,0,0,0,0-2ZM5.46,78,21.08,51,36.69,78Z"></path><path d="M60,62H48a2,2,0,0,0,0,4H60a2,2,0,0,0,0-4Z"></path><path d="M126,58H114a2,2,0,0,0,0,4h12a2,2,0,0,0,0-4Z"></path><path d="M126,66H114a2,2,0,0,0,0,4h12a2,2,0,0,0,0-4Z"></path><path d="M126,102H114a2,2,0,0,0,0,4h12a2,2,0,0,0,0-4Z"></path><path d="M126,110H114a2,2,0,0,0,0,4h12a2,2,0,0,0,0-4Z"></path><path d="M104,82.5a2,2,0,0,0,2-2v-33a2,2,0,0,0-2-2H71a2,2,0,0,0-2,2v33a2,2,0,0,0,2,2Zm-31-33h29v29H73Z"></path><path d="M87,88.08a20,20,0,1,0,20,20A20,20,0,0,0,87,88.08ZM87,124a16,16,0,1,1,16-16A16,16,0,0,1,87,124Z"></path><path d="M37,90H4a2,2,0,0,0-2,2v33a2,2,0,0,0,2,2H37a2,2,0,0,0,2-2V92A2,2,0,0,0,37,90Zm-2,33H6V94H35Z"></path><path d="M60,106H56v-4a2,2,0,0,0-4,0v4H48a2,2,0,0,0,0,4h4v4a2,2,0,0,0,4,0v-4h4a2,2,0,0,0,0-4Z"></path></svg>