<?xml version="1.0" encoding="UTF-8" standalone="no"?>
<svg
   xmlns:dc="http://purl.org/dc/elements/1.1/"
   xmlns:cc="http://creativecommons.org/ns#"
   xmlns:rdf="http://www.w3.org/1999/02/22-rdf-syntax-ns#"
   xmlns:svg="http://www.w3.org/2000/svg"
   xmlns="http://www.w3.org/2000/svg"
   xmlns:sodipodi="http://sodipodi.sourceforge.net/DTD/sodipodi-0.dtd"
   xmlns:inkscape="http://www.inkscape.org/namespaces/inkscape"
   inkscape:version="1.0 (4035a4f, 2020-05-01)"
   sodipodi:docname="Learn.svg"
   id="svg46"
   xml:space="preserve"
   enable-background="new 206 206 100 100"
   viewBox="206 206 92.4123 92.413445"
   y="0px"
   x="0px"
   version="1.1"
   fill="#02a9e6"
   width="92.4123"
   height="92.413445"><metadata
     id="metadata52"><rdf:RDF><cc:Work
         rdf:about=""><dc:format>image/svg+xml</dc:format><dc:type
           rdf:resource="http://purl.org/dc/dcmitype/StillImage" /><dc:title></dc:title></cc:Work></rdf:RDF></metadata><defs
     id="defs50" /><sodipodi:namedview
     inkscape:current-layer="svg46"
     inkscape:window-maximized="0"
     inkscape:window-y="23"
     inkscape:window-x="0"
     inkscape:cy="46.205448"
     inkscape:cx="46.208036"
     inkscape:zoom="5.14"
     fit-margin-bottom="0"
     fit-margin-right="0"
     fit-margin-left="0"
     fit-margin-top="0"
     showgrid="false"
     id="namedview48"
     inkscape:window-height="678"
     inkscape:window-width="959"
     inkscape:pageshadow="2"
     inkscape:pageopacity="0"
     guidetolerance="10"
     gridtolerance="10"
     objecttolerance="10"
     borderopacity="1"
     bordercolor="#666666"
     pagecolor="#ffffff" /><path
     style="stroke:#02a9e6;stroke-width:0.9;stroke-miterlimit:4;stroke-dasharray:none;stroke-opacity:1"
     d="m 246.59404,222.23345 c -3.432,3.434 -5.785,7.746 -6.802,12.471 -0.956,4.438 -0.697,9.032 0.738,13.323 l -1.611,1.61 -14.59,0.143 c -0.011,0 -0.02,0.003 -0.03,0.003 -0.028,0.001 -0.055,0.005 -0.083,0.009 -0.024,0.004 -0.047,0.008 -0.07,0.014 -0.025,0.006 -0.049,0.015 -0.074,0.024 -0.024,0.008 -0.048,0.018 -0.071,0.029 -0.021,0.01 -0.042,0.022 -0.063,0.035 -0.024,0.015 -0.048,0.029 -0.07,0.045 -0.008,0.007 -0.017,0.011 -0.025,0.017 l -17.106,13.967 c -0.004,0.004 -0.007,0.008 -0.012,0.012 -0.022,0.02 -0.041,0.04 -0.061,0.062 -0.016,0.017 -0.033,0.032 -0.047,0.05 -0.016,0.02 -0.028,0.042 -0.042,0.063 -0.014,0.022 -0.029,0.043 -0.04,0.065 -0.012,0.021 -0.02,0.045 -0.029,0.068 -0.009,0.023 -0.019,0.047 -0.026,0.07 -0.007,0.024 -0.01,0.049 -0.015,0.074 -0.005,0.024 -0.011,0.049 -0.013,0.075 -0.002,0.021 0,0.045 0,0.068 0,0.028 0,0.058 0.003,0.087 0,0.006 0,0.011 0,0.016 0.003,0.021 0.01,0.04 0.014,0.06 0.005,0.022 0.009,0.046 0.016,0.067 0.009,0.03 0.022,0.059 0.035,0.088 0.007,0.016 0.013,0.032 0.021,0.048 0.023,0.044 0.051,0.085 0.082,0.124 0.001,0 0.001,0 0.001,0.002 0.002,0.001 0.004,0.002 0.005,0.005 0.033,0.039 0.07,0.072 0.109,0.105 0.014,0.012 0.029,0.021 0.044,0.032 0.028,0.02 0.059,0.037 0.089,0.053 0.017,0.01 0.034,0.019 0.051,0.026 0.034,0.015 0.069,0.024 0.105,0.035 0.014,0.004 0.028,0.009 0.043,0.012 0.051,0.01 0.103,0.017 0.156,0.017 v 0 h 10e-4 c 0.001,0 0.003,0 0.005,0 0.033,0 0.066,-0.003 0.1,-0.007 l 20.372,-2.8 2.958,2.959 -2.298,2.297 c -0.304,0.306 -0.304,0.8 0,1.104 l 7.186,7.187 c 0.146,0.146 0.345,0.229 0.552,0.229 0.207,0 0.405,-0.083 0.552,-0.229 l 2.297,-2.299 2.958,2.958 -2.8,20.371 c 0,0.005 0,0.011 0,0.017 -0.003,0.028 -0.003,0.058 -0.003,0.086 0,0.023 -0.001,0.047 0.001,0.068 0.002,0.026 0.008,0.051 0.011,0.076 0.005,0.024 0.009,0.049 0.015,0.073 0.007,0.023 0.018,0.047 0.027,0.07 0.009,0.023 0.017,0.047 0.028,0.069 0.011,0.021 0.026,0.042 0.04,0.064 0.014,0.021 0.026,0.043 0.042,0.063 0.014,0.018 0.031,0.033 0.047,0.051 0.02,0.021 0.039,0.042 0.061,0.061 0.004,0.004 0.007,0.008 0.012,0.012 0.018,0.016 0.038,0.026 0.057,0.039 0.016,0.011 0.03,0.022 0.047,0.032 0.039,0.022 0.079,0.04 0.119,0.056 0.004,0.002 0.007,0.004 0.011,0.004 0.046,0.018 0.095,0.027 0.143,0.035 0.004,0 0.006,0.003 0.01,0.003 0.033,0.004 0.067,0.007 0.1,0.007 0.002,0 0.004,0 0.006,0 0,0 0,0 0,0 0,0 0,0 0,0 0.054,0 0.106,-0.007 0.157,-0.018 0.014,-0.002 0.028,-0.008 0.042,-0.012 0.037,-0.01 0.072,-0.021 0.106,-0.036 0.018,-0.007 0.034,-0.016 0.051,-0.023 0.031,-0.017 0.061,-0.035 0.089,-0.055 0.016,-0.012 0.031,-0.021 0.045,-0.032 0.04,-0.031 0.076,-0.066 0.108,-0.105 0.002,-0.002 0.004,-0.004 0.005,-0.005 l 0.002,-0.003 v 0 l 13.964,-17.104 c 0.008,-0.008 0.012,-0.019 0.019,-0.027 0.017,-0.021 0.031,-0.044 0.045,-0.068 0.014,-0.021 0.025,-0.042 0.035,-0.063 0.011,-0.023 0.02,-0.048 0.028,-0.071 0.01,-0.025 0.018,-0.048 0.023,-0.073 0.006,-0.023 0.011,-0.048 0.014,-0.071 0.004,-0.027 0.008,-0.055 0.009,-0.082 10e-4,-0.01 0.004,-0.019 0.004,-0.029 l 0.143,-14.591 1.608,-1.608 c 2.589,0.867 5.289,1.305 7.998,1.305 1.782,0 3.566,-0.189 5.327,-0.568 4.725,-1.018 9.037,-3.37 12.47,-6.804 4.753,-4.752 7.37,-11.07 7.37,-17.792 0,-6.721 -2.617,-13.039 -7.369,-17.792 -9.808,-9.813 -25.77,-9.813 -35.582,-0.003 z m -7.564,29.499 13.649,13.649 -2.552,2.554 -13.649,-13.649 z m 9.993,17.305 -2.553,2.554 -13.648,-13.649 2.552,-2.554 z m -21.404,-8.1 -17.746,2.439 14.746,-12.04 12.726,-0.125 z m 8.486,13.453 -6.082,-6.083 1.747,-1.746 6.082,6.082 z m 3.406,-2.292 c -0.001,-0.003 -0.002,-0.006 -0.004,-0.007 -0.002,-0.001 -0.004,-0.003 -0.006,-0.005 l -7.177,-7.178 c 0,0 -0.001,-0.001 -0.002,-0.002 -10e-4,-0.002 -0.002,-0.002 -0.003,-0.003 l -3.229,-3.229 2.63,-2.63 13.649,13.649 -2.63,2.63 z m 13.563,7.695 -12.04,14.747 2.44,-17.746 9.724,-9.726 z m 28.001,-23.078 c -6.415,6.415 -16.085,8.589 -24.638,5.539 -0.018,-0.007 -0.034,-0.008 -0.051,-0.014 -0.027,-0.008 -0.055,-0.016 -0.083,-0.02 -0.025,-0.005 -0.05,-0.006 -0.074,-0.008 -0.024,-10e-4 -0.051,-0.003 -0.075,-0.002 -0.026,0 -0.051,0.004 -0.075,0.006 -0.024,0.004 -0.051,0.007 -0.075,0.012 -0.023,0.006 -0.046,0.014 -0.069,0.021 -0.024,0.008 -0.051,0.016 -0.074,0.027 -0.021,0.009 -0.044,0.021 -0.064,0.033 -0.022,0.012 -0.044,0.024 -0.066,0.039 -0.023,0.017 -0.044,0.035 -0.066,0.055 -0.013,0.012 -0.026,0.02 -0.04,0.032 l -1.842,1.842 -13.649,-13.648 1.843,-1.843 c 0.012,-0.012 0.021,-0.027 0.033,-0.04 0.019,-0.021 0.038,-0.043 0.054,-0.066 0.015,-0.021 0.026,-0.042 0.039,-0.064 0.012,-0.022 0.024,-0.043 0.035,-0.067 0.01,-0.023 0.018,-0.047 0.026,-0.072 0.008,-0.023 0.016,-0.046 0.021,-0.071 0.005,-0.024 0.007,-0.048 0.011,-0.073 0.003,-0.025 0.007,-0.05 0.007,-0.077 0,-0.025 -10e-4,-0.05 -0.003,-0.075 -0.002,-0.024 -0.002,-0.049 -0.007,-0.074 -0.004,-0.029 -0.013,-0.057 -0.021,-0.085 -0.004,-0.016 -0.006,-0.032 -0.012,-0.049 -3.05,-8.551 -0.876,-18.221 5.54,-24.637 9.203,-9.203 24.175,-9.203 33.377,-0.001 4.457,4.458 6.912,10.384 6.912,16.689 0,6.305 -2.457,12.232 -6.914,16.691 z"
     id="path10" /><path
     style="stroke:#02a9e6;stroke-width:0.9;stroke-miterlimit:4;stroke-dasharray:none;stroke-opacity:1"
     d="m 285.76704,219.42445 c 0.199,0 0.399,-0.076 0.551,-0.228 l 2.72,-2.719 c 0.304,-0.304 0.304,-0.798 0,-1.103 -0.305,-0.305 -0.798,-0.304 -1.104,0 l -2.718,2.718 c -0.305,0.304 -0.305,0.798 0,1.104 0.152,0.152 0.352,0.228 0.551,0.228 z"
     id="path12" /><path
     style="stroke:#02a9e6;stroke-width:0.9;stroke-miterlimit:4;stroke-dasharray:none;stroke-opacity:1"
     d="m 272.22604,211.69545 c 0.067,0.018 0.135,0.026 0.203,0.026 0.344,0 0.659,-0.229 0.751,-0.578 l 0.996,-3.713 c 0.111,-0.416 -0.135,-0.844 -0.551,-0.955 -0.417,-0.11 -0.844,0.136 -0.955,0.552 l -0.996,3.713 c -0.111,0.416 0.136,0.844 0.552,0.955 z"
     id="path14" /><path
     style="stroke:#02a9e6;stroke-width:0.9;stroke-miterlimit:4;stroke-dasharray:none;stroke-opacity:1"
     d="m 256.27004,211.14445 c 0.094,0.349 0.409,0.579 0.753,0.579 0.067,0 0.135,-0.009 0.203,-0.027 0.416,-0.111 0.663,-0.539 0.551,-0.955 l -0.994,-3.713 c -0.111,-0.416 -0.54,-0.664 -0.955,-0.552 -0.417,0.111 -0.663,0.539 -0.552,0.955 z"
     id="path16" /><path
     style="stroke:#02a9e6;stroke-width:0.9;stroke-miterlimit:4;stroke-dasharray:none;stroke-opacity:1"
     d="m 243.13304,219.19545 c 0.153,0.153 0.352,0.229 0.552,0.229 0.199,0 0.398,-0.076 0.551,-0.229 0.305,-0.304 0.305,-0.798 0,-1.103 l -2.718,-2.718 c -0.305,-0.305 -0.798,-0.305 -1.104,0 -0.304,0.304 -0.304,0.798 0,1.103 z"
     id="path18" /><path
     style="stroke:#02a9e6;stroke-width:0.9;stroke-miterlimit:4;stroke-dasharray:none;stroke-opacity:1"
     d="m 232.06704,231.74145 3.713,0.997 c 0.067,0.018 0.135,0.026 0.202,0.026 0.345,0 0.66,-0.229 0.753,-0.578 0.112,-0.416 -0.135,-0.844 -0.551,-0.955 l -3.713,-0.997 c -0.416,-0.111 -0.844,0.135 -0.956,0.551 -0.11,0.417 0.136,0.845 0.552,0.956 z"
     id="path20" /><path
     style="stroke:#02a9e6;stroke-width:0.9;stroke-miterlimit:4;stroke-dasharray:none;stroke-opacity:1"
     d="m 273.17904,268.22745 c -0.111,-0.415 -0.539,-0.662 -0.955,-0.551 -0.416,0.112 -0.662,0.539 -0.551,0.956 l 0.996,3.712 c 0.093,0.349 0.407,0.578 0.751,0.578 0.067,0 0.135,-0.008 0.204,-0.026 0.415,-0.111 0.662,-0.54 0.55,-0.955 z"
     id="path22" /><path
     style="stroke:#02a9e6;stroke-width:0.9;stroke-miterlimit:4;stroke-dasharray:none;stroke-opacity:1"
     d="m 286.31804,260.17745 c -0.305,-0.305 -0.798,-0.305 -1.103,0 -0.304,0.306 -0.304,0.799 0.001,1.104 l 2.717,2.717 c 0.153,0.152 0.352,0.229 0.552,0.229 0.2,0 0.399,-0.076 0.552,-0.229 0.305,-0.305 0.305,-0.8 0,-1.104 z"
     id="path24" /><path
     style="stroke:#02a9e6;stroke-width:0.9;stroke-miterlimit:4;stroke-dasharray:none;stroke-opacity:1"
     d="m 297.38404,247.62945 -3.712,-0.994 c -0.417,-0.112 -0.844,0.135 -0.956,0.551 -0.111,0.416 0.136,0.843 0.552,0.955 l 3.713,0.994 c 0.067,0.018 0.135,0.027 0.202,0.027 0.344,0 0.66,-0.23 0.753,-0.579 0.11,-0.415 -0.136,-0.843 -0.552,-0.954 z"
     id="path26" /><path
     style="stroke:#02a9e6;stroke-width:0.9;stroke-miterlimit:4;stroke-dasharray:none;stroke-opacity:1"
     d="m 293.46904,232.76445 c 0.066,0 0.134,-0.008 0.203,-0.026 l 3.712,-0.995 c 0.416,-0.111 0.664,-0.539 0.552,-0.955 -0.111,-0.416 -0.54,-0.663 -0.955,-0.552 l -3.713,0.995 c -0.416,0.111 -0.663,0.539 -0.552,0.955 0.094,0.348 0.408,0.578 0.753,0.578 z"
     id="path28" /><path
     style="stroke:#02a9e6;stroke-width:0.9;stroke-miterlimit:4;stroke-dasharray:none;stroke-opacity:1"
     d="m 228.61204,275.61145 c -0.305,-0.306 -0.798,-0.306 -1.103,0 l -14.759,14.759 c -0.305,0.305 -0.305,0.799 0,1.104 0.152,0.151 0.352,0.229 0.552,0.229 0.199,0 0.398,-0.077 0.551,-0.229 l 14.759,-14.76 c 0.305,-0.305 0.305,-0.799 0,-1.103 z"
     id="path30" /><path
     style="stroke:#02a9e6;stroke-width:0.9;stroke-miterlimit:4;stroke-dasharray:none;stroke-opacity:1"
     d="m 212.80304,283.88345 c -0.305,0.304 -0.305,0.798 0,1.102 0.152,0.153 0.352,0.229 0.552,0.229 0.199,0 0.399,-0.075 0.551,-0.229 l 13.058,-13.059 c 0.305,-0.304 0.305,-0.798 0,-1.102 -0.304,-0.306 -0.797,-0.306 -1.103,0 z"
     id="path32" /><path
     style="stroke:#02a9e6;stroke-width:0.9;stroke-miterlimit:4;stroke-dasharray:none;stroke-opacity:1"
     d="m 213.41304,279.04445 12.688,-12.688 c 0.304,-0.304 0.304,-0.798 0,-1.102 -0.305,-0.306 -0.799,-0.306 -1.104,0 l -12.688,12.688 c -0.304,0.304 -0.304,0.798 0,1.102 0.153,0.152 0.353,0.229 0.552,0.229 0.2,-0.001 0.399,-0.076 0.552,-0.229 z"
     id="path34" /><path
     style="stroke:#02a9e6;stroke-width:0.9;stroke-miterlimit:4;stroke-dasharray:none;stroke-opacity:1"
     d="m 238.96904,278.12145 c -0.304,-0.304 -0.798,-0.304 -1.103,0 l -12.688,12.689 c -0.304,0.304 -0.304,0.798 0,1.102 0.153,0.152 0.352,0.229 0.552,0.229 0.199,0 0.399,-0.076 0.552,-0.229 l 12.688,-12.688 c 0.304,-0.304 0.304,-0.798 -0.001,-1.103 z"
     id="path36" /><path
     style="stroke:#02a9e6;stroke-width:0.9;stroke-miterlimit:4;stroke-dasharray:none;stroke-opacity:1"
     d="m 233.39804,277.25745 c -0.304,-0.305 -0.798,-0.305 -1.103,0 l -13.059,13.06 c -0.305,0.305 -0.305,0.799 0,1.103 0.152,0.152 0.352,0.229 0.551,0.229 0.2,0 0.399,-0.076 0.552,-0.229 l 13.059,-13.059 c 0.305,-0.305 0.305,-0.798 0,-1.104 z"
     id="path38" /><path
     style="stroke:#02a9e6;stroke-width:0.9;stroke-miterlimit:4;stroke-dasharray:none;stroke-opacity:1"
     d="m 270.21504,234.82345 c -0.005,-0.031 -0.01,-0.063 -0.02,-0.092 -0.001,-0.003 -0.001,-0.007 -0.002,-0.01 -0.006,-0.018 -0.015,-0.033 -0.021,-0.049 -0.012,-0.027 -0.021,-0.055 -0.036,-0.081 -0.012,-0.022 -0.025,-0.042 -0.039,-0.062 -0.014,-0.022 -0.028,-0.044 -0.045,-0.064 -0.016,-0.02 -0.034,-0.036 -0.051,-0.054 -0.02,-0.018 -0.036,-0.037 -0.056,-0.053 -0.021,-0.016 -0.042,-0.029 -0.063,-0.043 -0.021,-0.014 -0.042,-0.029 -0.063,-0.041 -0.026,-0.014 -0.054,-0.024 -0.081,-0.035 -0.017,-0.007 -0.032,-0.017 -0.049,-0.022 -0.004,-0.001 -0.007,-0.001 -0.011,-0.002 -0.029,-0.009 -0.061,-0.015 -0.093,-0.021 -0.02,-0.003 -0.039,-0.009 -0.059,-0.011 -0.026,-0.003 -0.052,-0.001 -0.079,-0.001 -0.025,0 -0.05,-10e-4 -0.074,0.001 -0.021,0.002 -0.043,0.008 -0.063,0.012 -0.03,0.005 -0.059,0.01 -0.087,0.019 -0.004,0 -0.008,0 -0.012,0.002 l -9.461,3.041 c -0.008,0.002 -0.016,0.006 -0.023,0.01 -0.028,0.01 -0.055,0.022 -0.083,0.036 -0.02,0.01 -0.04,0.02 -0.059,0.031 -0.022,0.014 -0.044,0.029 -0.065,0.045 -0.021,0.016 -0.041,0.032 -0.061,0.049 -0.008,0.007 -0.015,0.012 -0.021,0.019 l -14.402,14.4 c -0.304,0.305 -0.304,0.799 0,1.104 0.305,0.305 0.8,0.305 1.104,0 l 13.849,-13.85 5.316,5.317 -13.849,13.849 c -0.304,0.306 -0.304,0.799 0,1.104 0.153,0.152 0.352,0.229 0.552,0.229 0.2,0 0.4,-0.076 0.552,-0.229 l 14.388,-14.389 c 0.04,-0.038 0.073,-0.08 0.104,-0.126 0.006,-0.006 0.008,-0.012 0.013,-0.019 0.021,-0.033 0.039,-0.069 0.057,-0.106 0.005,-0.01 0.009,-0.021 0.013,-0.032 0.005,-0.014 0.013,-0.027 0.019,-0.042 l 3.04,-9.461 c 0.001,-0.004 0.001,-0.007 0.002,-0.01 0.01,-0.03 0.015,-0.061 0.02,-0.092 0.004,-0.02 0.01,-0.04 0.012,-0.06 0.003,-0.025 0,-0.051 0,-0.077 0,-0.026 0.003,-0.052 0,-0.077 -0.003,-0.017 -0.009,-0.037 -0.013,-0.057 z m -4.156,8.142 -4.613,-4.614 6.798,-2.185 z"
     id="path40" /><path
     style="stroke:#02a9e6;stroke-width:0.9;stroke-miterlimit:4;stroke-dasharray:none;stroke-opacity:1"
     d="m 260.59504,244.12445 c -0.305,-0.304 -0.798,-0.304 -1.104,0 l -11.088,11.089 c -0.305,0.306 -0.305,0.8 0,1.104 0.152,0.152 0.352,0.229 0.552,0.229 0.2,0 0.398,-0.076 0.551,-0.229 l 11.089,-11.09 c 0.306,-0.304 0.306,-0.799 0,-1.103 z"
     id="path42" /></svg>
