<svg height='100px' width='100px'  fill="#02A9E6" xmlns="http://www.w3.org/2000/svg" xmlns:xlink="http://www.w3.org/1999/xlink" version="1.1" x="0px" y="0px" viewBox="0 0 64 64" style="enable-background:new 0 0 64 64;" xml:space="preserve"><g><path d="M63,19v-8h-2.693c-0.141-0.4-0.302-0.791-0.481-1.168l1.902-1.903l-5.656-5.656l-1.903,1.902   C53.791,3.995,53.4,3.834,53,3.693V1h-8v2.693c-0.4,0.141-0.791,0.302-1.168,0.481l-1.903-1.902l-4.766,4.766l-17.436,5   C19.488,12.013,19.245,12,19,12c-1.312,0-2.536,0.369-3.587,1H10c-3.309,0-6,2.691-6,6v34H1v5c0,2.757,2.243,5,5,5h52   c2.757,0,5-2.243,5-5v-5h-3V23.799l1.728-1.728l-1.902-1.903c0.18-0.378,0.341-0.769,0.481-1.168H63z M37.396,9.052l0.779,0.779   c-0.18,0.378-0.341,0.769-0.481,1.168H35v3.356l-9.027,4.103c-0.168-2.184-1.336-4.092-3.053-5.256L37.396,9.052z M41.929,27.728   l1.903-1.902c0.378,0.18,0.769,0.341,1.168,0.481V29h8v-2.693c0.342-0.12,0.673-0.263,1-0.412V53H10V20c0-0.551,0.449-1,1-1h1   c0,2.82,1.679,5.249,4.087,6.357l1.876,13.842C17.349,40.33,17,41.625,17,43c0,4.411,3.589,8,8,8s8-3.589,8-8   c0-3.041-1.707-5.691-4.212-7.044l-4.794-12.06c0.846-0.863,1.465-1.944,1.776-3.148L35,16.553V19h2.693   c0.141,0.4,0.302,0.791,0.481,1.168l-1.902,1.903L41.929,27.728z M26,55h12v1c0,0.551-0.449,1-1,1H27c-0.551,0-1-0.449-1-1V55z    M22.34,25.15l3.961,9.965C25.877,35.046,25.444,35,25,35c-2.04,0-3.898,0.774-5.313,2.035l-1.503-11.087   C18.453,25.98,18.724,26,19,26C20.209,26,21.347,25.692,22.34,25.15z M25,37c3.309,0,6,2.691,6,6s-2.691,6-6,6s-6-2.691-6-6   S21.691,37,25,37z M24,19c0,2.757-2.243,5-5,5s-5-2.243-5-5s2.243-5,5-5S24,16.243,24,19z M6,19c0-2.206,1.794-4,4-4h3.264   c-0.423,0.604-0.753,1.277-0.969,2H11c-1.654,0-3,1.346-3,3v33H6V19z M61,58c0,1.654-1.346,3-3,3H6c-1.654,0-3-1.346-3-3v-3h21v1   c0,1.654,1.346,3,3,3h10c1.654,0,3-1.346,3-3v-1h21V58z M58,53h-2V27.656l0.071,0.071L58,25.799V53z M58.899,22.071l-2.828,2.828   l-1.54-1.539l-0.66,0.369c-0.665,0.372-1.387,0.669-2.145,0.884L51,24.819V27h-4v-2.181l-0.727-0.206   c-0.758-0.215-1.479-0.512-2.145-0.884l-0.66-0.369l-1.54,1.539l-2.828-2.828l1.539-1.54l-0.369-0.66   c-0.372-0.665-0.669-1.387-0.884-2.145L39.181,17H37v-4h2.181l0.206-0.727c0.215-0.758,0.512-1.479,0.884-2.145l0.369-0.66   l-1.539-1.54l2.828-2.828l1.54,1.539l0.66-0.369c0.665-0.372,1.387-0.669,2.145-0.884L47,5.181V3h4v2.181l0.727,0.206   c0.758,0.215,1.479,0.512,2.145,0.884l0.66,0.369l1.54-1.539l2.828,2.828l-1.539,1.54l0.369,0.66   c0.372,0.665,0.669,1.387,0.884,2.145L58.819,13H61v4h-2.181l-0.206,0.727c-0.215,0.758-0.512,1.479-0.884,2.145l-0.369,0.66   L58.899,22.071z"></path><path d="M49,9c-3.309,0-6,2.691-6,6s2.691,6,6,6c1.523,0,2.975-0.572,4.089-1.61l-1.363-1.463C50.983,18.619,50.015,19,49,19   c-2.206,0-4-1.794-4-4s1.794-4,4-4s4,1.794,4,4c0,0.645-0.148,1.26-0.441,1.828l1.778,0.915C54.771,16.901,55,15.952,55,15   C55,11.691,52.309,9,49,9z"></path><path d="M25,47c2.206,0,4-1.794,4-4s-1.794-4-4-4s-4,1.794-4,4S22.794,47,25,47z M25,41c1.103,0,2,0.897,2,2s-0.897,2-2,2   s-2-0.897-2-2S23.897,41,25,41z"></path><path d="M19,22c1.654,0,3-1.346,3-3s-1.346-3-3-3s-3,1.346-3,3S17.346,22,19,22z M19,18c0.551,0,1,0.449,1,1s-0.449,1-1,1   s-1-0.449-1-1S18.449,18,19,18z"></path><path d="M36,51h16V33H36V51z M38,35h12v14H38V35z"></path><rect x="40" y="37" width="8" height="2"></rect><rect x="40" y="41" width="8" height="2"></rect><rect x="40" y="45" width="8" height="2"></rect><rect x="10" y="57" width="2" height="2"></rect><rect x="14" y="57" width="2" height="2"></rect><rect x="18" y="57" width="2" height="2"></rect></g></svg>