<?xml version="1.0" encoding="UTF-8" standalone="no"?>
<svg
   xmlns:dc="http://purl.org/dc/elements/1.1/"
   xmlns:cc="http://creativecommons.org/ns#"
   xmlns:rdf="http://www.w3.org/1999/02/22-rdf-syntax-ns#"
   xmlns:svg="http://www.w3.org/2000/svg"
   xmlns="http://www.w3.org/2000/svg"
   xmlns:sodipodi="http://sodipodi.sourceforge.net/DTD/sodipodi-0.dtd"
   xmlns:inkscape="http://www.inkscape.org/namespaces/inkscape"
   inkscape:version="1.0 (4035a4f, 2020-05-01)"
   sodipodi:docname="VisualFeedback.svg"
   id="svg901"
   xml:space="preserve"
   viewBox="0 0 454.05398 426.25477"
   y="0px"
   x="0px"
   version="1.1"
   fill="#02a9e6"
   width="88.682419"
   height="83.252884"><metadata
     id="metadata907"><rdf:RDF><cc:Work
         rdf:about=""><dc:format>image/svg+xml</dc:format><dc:type
           rdf:resource="http://purl.org/dc/dcmitype/StillImage" /><dc:title></dc:title></cc:Work></rdf:RDF></metadata><defs
     id="defs905" /><sodipodi:namedview
     inkscape:current-layer="svg901"
     inkscape:window-maximized="0"
     inkscape:window-y="23"
     inkscape:window-x="0"
     inkscape:cy="-1.7588468"
     inkscape:cx="13.407359"
     inkscape:zoom="5.14"
     fit-margin-bottom="0"
     fit-margin-right="0"
     fit-margin-left="0"
     fit-margin-top="0"
     showgrid="false"
     id="namedview903"
     inkscape:window-height="625"
     inkscape:window-width="1133"
     inkscape:pageshadow="2"
     inkscape:pageopacity="0"
     guidetolerance="10"
     gridtolerance="10"
     objecttolerance="10"
     borderopacity="1"
     bordercolor="#666666"
     pagecolor="#ffffff" /><g
     transform="translate(-28.973,-42.873)"
     id="g899"><g
       id="g897"><g
         id="g857"><g
           id="g835"><path
             id="path833"
             d="m 242.236,250.221 c -0.862,0 -1.729,-0.121 -2.577,-0.366 l -77.718,-22.498 c -3.962,-1.147 -6.689,-4.775 -6.689,-8.901 v -97.488 c 0,-2.914 1.37,-5.657 3.699,-7.408 2.329,-1.75 5.345,-2.302 8.145,-1.493 l 77.718,22.498 c 3.962,1.147 6.689,4.775 6.689,8.901 v 97.489 c 0,2.914 -1.37,5.657 -3.699,7.408 -1.625,1.22 -3.583,1.858 -5.568,1.858 z m -68.452,-38.729 59.186,17.133 V 150.43 l -59.186,-17.132 z" /></g><g
           id="g839"><path
             id="path837"
             d="m 242.236,250.221 c -1.985,0 -3.943,-0.639 -5.568,-1.859 -2.329,-1.75 -3.699,-4.494 -3.699,-7.408 v -97.489 c 0,-4.126 2.727,-7.754 6.689,-8.901 l 77.719,-22.498 c 2.8,-0.81 5.816,-0.256 8.144,1.493 2.329,1.75 3.699,4.494 3.699,7.408 v 37.563 c 0,4.125 -2.728,7.754 -6.689,8.901 l -16.626,4.813 v 52.961 c 0,4.125 -2.728,7.754 -6.689,8.901 l -54.403,15.748 c -0.847,0.247 -1.714,0.367 -2.577,0.367 z m 9.266,-99.791 v 78.196 l 35.871,-10.383 v -52.961 c 0,-4.125 2.728,-7.753 6.688,-8.9 l 16.627,-4.813 v -18.27 z" /></g><g
           id="g843"><path
             id="path841"
             d="m 242.236,152.732 c -0.868,0 -1.735,-0.122 -2.577,-0.366 l -77.718,-22.497 c -3.962,-1.147 -6.689,-4.775 -6.689,-8.901 0,-4.126 2.727,-7.754 6.689,-8.901 L 239.659,89.57 c 1.683,-0.488 3.471,-0.488 5.154,0 l 77.718,22.497 c 3.962,1.147 6.689,4.775 6.689,8.901 0,4.126 -2.728,7.754 -6.689,8.901 l -77.718,22.497 c -0.842,0.244 -1.709,0.366 -2.577,0.366 z m -44.393,-31.764 44.393,12.851 44.393,-12.851 -44.393,-12.85 z" /></g><g
           id="g847"><path
             id="path845"
             d="m 357.399,268.354 c -0.861,0 -1.729,-0.12 -2.575,-0.365 L 294.063,250.4 c -3.962,-1.147 -6.689,-4.775 -6.689,-8.901 v -76.218 c 0,-2.913 1.37,-5.657 3.699,-7.407 2.327,-1.75 5.344,-2.304 8.144,-1.493 l 60.761,17.589 c 3.963,1.147 6.69,4.775 6.69,8.901 v 76.217 c 0,2.913 -1.37,5.656 -3.7,7.407 -1.624,1.22 -3.583,1.859 -5.569,1.859 z m -51.494,-33.819 42.229,12.224 v -56.923 l -42.229,-12.224 z" /></g><g
           id="g851"><path
             id="path849"
             d="m 357.401,268.354 c -1.986,0 -3.944,-0.638 -5.568,-1.858 -2.329,-1.751 -3.699,-4.494 -3.699,-7.407 v -76.217 c 0,-4.125 2.728,-7.754 6.69,-8.901 l 60.762,-17.589 c 2.801,-0.811 5.815,-0.256 8.144,1.493 2.329,1.75 3.699,4.494 3.699,7.407 V 241.5 c 0,4.125 -2.728,7.754 -6.69,8.901 l -60.762,17.588 c -0.847,0.244 -1.714,0.365 -2.576,0.365 z m 9.266,-78.519 v 56.923 l 42.229,-12.224 V 177.61 Z" /></g><g
           id="g855"><path
             id="path853"
             d="m 357.4,192.137 c -0.868,0 -1.735,-0.122 -2.576,-0.365 l -60.762,-17.589 c -3.962,-1.147 -6.689,-4.775 -6.689,-8.901 0,-4.125 2.728,-7.753 6.688,-8.9 l 60.763,-17.589 c 1.683,-0.488 3.469,-0.488 5.152,0 l 60.762,17.589 c 3.963,1.147 6.69,4.775 6.69,8.9 0,4.126 -2.728,7.754 -6.69,8.901 l -60.762,17.589 c -0.841,0.243 -1.708,0.365 -2.576,0.365 z m -27.437,-26.856 27.438,7.942 27.437,-7.942 -27.437,-7.942 z" /></g></g><g
         id="g861"><path
           id="path859"
           d="m 321.854,469.127 c -0.005,10e-4 -0.013,10e-4 -0.019,0 H 180.037 c -2.971,0 -5.761,-1.424 -7.504,-3.829 -1.743,-2.406 -2.227,-5.501 -1.301,-8.324 l 30.384,-92.664 c 1.249,-3.806 4.8,-6.379 8.806,-6.379 h 81.027 c 4.006,0 7.558,2.573 8.805,6.379 l 30.197,92.09 c 0.432,1.07 0.668,2.238 0.668,3.462 0,5.117 -4.147,9.265 -9.265,9.265 z M 192.827,450.595 h 116.218 l -24.309,-74.132 h -67.601 z" /></g><circle
         id="circle863"
         r="10.129"
         cy="330.99399"
         cx="250.936" /><g
         id="g867"><path
           id="path865"
           d="M 371.83,469.127 H 130.903 c -5.118,0 -9.266,-4.148 -9.266,-9.266 0,-5.118 4.148,-9.267 9.266,-9.267 H 371.83 c 5.117,0 9.267,4.149 9.267,9.267 0,5.118 -4.15,9.266 -9.267,9.266 z" /></g><g
         id="g871"><path
           id="path869"
           d="M 130.903,311.599 H 38.239 c -5.118,0 -9.266,-4.149 -9.266,-9.267 0,-5.118 4.148,-9.267 9.266,-9.267 h 92.664 c 5.118,0 9.267,4.149 9.267,9.267 0,5.118 -4.149,9.267 -9.267,9.267 z" /></g><g
         id="g875"><path
           id="path873"
           d="M 464.494,311.599 H 195.769 c -5.118,0 -9.267,-4.149 -9.267,-9.267 0,-5.118 4.148,-9.267 9.267,-9.267 h 268.726 c 5.117,0 9.267,4.149 9.267,9.267 0,5.118 -4.151,9.267 -9.268,9.267 z" /></g><g
         id="g879"><path
           id="path877"
           d="M 453.838,376.463 H 58.162 c -16.095,0 -29.189,-13.125 -29.189,-29.258 V 72.13 c 0,-16.133 13.094,-29.257 29.189,-29.257 h 395.676 c 16.095,0 29.189,13.125 29.189,29.257 v 275.075 c 0,16.133 -13.094,29.258 -29.189,29.258 z M 58.162,61.405 c -5.876,0 -10.656,4.811 -10.656,10.725 v 275.075 c 0,5.914 4.78,10.726 10.656,10.726 h 395.676 c 5.876,0 10.656,-4.812 10.656,-10.726 V 72.13 c 0,-5.914 -4.78,-10.725 -10.656,-10.725 H 58.162 Z" /></g><g
         id="g883"><path
           id="path881"
           d="M 121.637,98.471 H 75.305 c -5.118,0 -9.267,-4.149 -9.267,-9.267 0,-5.118 4.148,-9.267 9.267,-9.267 h 46.332 c 5.118,0 9.266,4.149 9.266,9.267 0,5.118 -4.148,9.267 -9.266,9.267 z" /></g><g
         id="g887"><path
           id="path885"
           d="M 121.637,135.537 H 75.305 c -5.118,0 -9.267,-4.148 -9.267,-9.266 0,-5.118 4.148,-9.267 9.267,-9.267 h 46.332 c 5.118,0 9.266,4.148 9.266,9.267 0,5.117 -4.148,9.266 -9.266,9.266 z" /></g><g
         id="g891"><path
           id="path889"
           d="M 121.637,172.603 H 75.305 c -5.118,0 -9.267,-4.149 -9.267,-9.267 0,-5.118 4.148,-9.267 9.267,-9.267 h 46.332 c 5.118,0 9.266,4.149 9.266,9.267 0,5.118 -4.148,9.267 -9.266,9.267 z" /></g><g
         id="g895"><path
           id="path893"
           d="M 121.637,209.668 H 75.305 c -5.118,0 -9.267,-4.148 -9.267,-9.267 0,-5.118 4.148,-9.266 9.267,-9.266 h 46.332 c 5.118,0 9.266,4.148 9.266,9.266 0,5.119 -4.148,9.267 -9.266,9.267 z" /></g></g></g></svg>
